<svg width="600" height="400" viewBox="0 0 600 400" xmlns="http://www.w3.org/2000/svg">
  <defs>
    <linearGradient id="nodeGradient1" x1="0%" y1="0%" x2="100%" y2="100%">
      <stop offset="0%" stop-color="#3182CE" />
      <stop offset="100%" stop-color="#4299E1" />
    </linearGradient>
    <linearGradient id="nodeGradient2" x1="0%" y1="0%" x2="100%" y2="100%">
      <stop offset="0%" stop-color="#38A169" />
      <stop offset="100%" stop-color="#48BB78" />
    </linearGradient>
    <linearGradient id="nodeGradient3" x1="0%" y1="0%" x2="100%" y2="100%">
      <stop offset="0%" stop-color="#DD6B20" />
      <stop offset="100%" stop-color="#ED8936" />
    </linearGradient>
    <linearGradient id="nodeGradient4" x1="0%" y1="0%" x2="100%" y2="100%">
      <stop offset="0%" stop-color="#E53E3E" />
      <stop offset="100%" stop-color="#F56565" />
    </linearGradient>
  </defs>
  
  <!-- Background elements -->
  <circle cx="300" cy="200" r="180" fill="#EBF8FF" opacity="0.5" />
  
  <!-- Network links -->
  <line x1="200" y1="150" x2="300" y2="100" stroke="#CBD5E0" stroke-width="2" />
  <line x1="300" y1="100" x2="400" y2="150" stroke="#CBD5E0" stroke-width="2" />
  <line x1="400" y1="150" x2="450" y2="250" stroke="#CBD5E0" stroke-width="2" />
  <line x1="450" y1="250" x2="350" y2="300" stroke="#CBD5E0" stroke-width="2" />
  <line x1="350" y1="300" x2="250" y2="300" stroke="#CBD5E0" stroke-width="2" />
  <line x1="250" y1="300" x2="150" y2="250" stroke="#CBD5E0" stroke-width="2" />
  <line x1="150" y1="250" x2="200" y2="150" stroke="#CBD5E0" stroke-width="2" />
  <line x1="300" y1="100" x2="300" y2="200" stroke="#CBD5E0" stroke-width="2" />
  <line x1="300" y1="200" x2="400" y2="150" stroke="#CBD5E0" stroke-width="2" />
  <line x1="300" y1="200" x2="450" y2="250" stroke="#CBD5E0" stroke-width="2" />
  <line x1="300" y1="200" x2="350" y2="300" stroke="#CBD5E0" stroke-width="2" />
  <line x1="300" y1="200" x2="250" y2="300" stroke="#CBD5E0" stroke-width="2" />
  <line x1="300" y1="200" x2="150" y2="250" stroke="#CBD5E0" stroke-width="2" />
  <line x1="300" y1="200" x2="200" y2="150" stroke="#CBD5E0" stroke-width="2" />
  
  <!-- Network nodes -->
  <circle cx="300" cy="200" r="30" fill="url(#nodeGradient1)" stroke="#fff" stroke-width="3" />
  <circle cx="200" cy="150" r="20" fill="url(#nodeGradient2)" stroke="#fff" stroke-width="2" />
  <circle cx="300" cy="100" r="20" fill="url(#nodeGradient2)" stroke="#fff" stroke-width="2" />
  <circle cx="400" cy="150" r="20" fill="url(#nodeGradient2)" stroke="#fff" stroke-width="2" />
  <circle cx="450" cy="250" r="20" fill="url(#nodeGradient2)" stroke="#fff" stroke-width="2" />
  <circle cx="350" cy="300" r="20" fill="url(#nodeGradient2)" stroke="#fff" stroke-width="2" />
  <circle cx="250" cy="300" r="20" fill="url(#nodeGradient2)" stroke="#fff" stroke-width="2" />
  <circle cx="150" cy="250" r="20" fill="url(#nodeGradient2)" stroke="#fff" stroke-width="2" />
  
  <!-- Small feedback nodes -->
  <circle cx="250" cy="125" r="10" fill="url(#nodeGradient3)" stroke="#fff" stroke-width="1" />
  <circle cx="350" cy="125" r="10" fill="url(#nodeGradient3)" stroke="#fff" stroke-width="1" />
  <circle cx="425" cy="200" r="10" fill="url(#nodeGradient3)" stroke="#fff" stroke-width="1" />
  <circle cx="400" cy="275" r="10" fill="url(#nodeGradient3)" stroke="#fff" stroke-width="1" />
  <circle cx="300" cy="325" r="10" fill="url(#nodeGradient3)" stroke="#fff" stroke-width="1" />
  <circle cx="200" cy="275" r="10" fill="url(#nodeGradient3)" stroke="#fff" stroke-width="1" />
  <circle cx="175" cy="200" r="10" fill="url(#nodeGradient3)" stroke="#fff" stroke-width="1" />
  
  <!-- Negative feedback nodes -->
  <circle cx="225" cy="175" r="8" fill="url(#nodeGradient4)" stroke="#fff" stroke-width="1" />
  <circle cx="375" cy="175" r="8" fill="url(#nodeGradient4)" stroke="#fff" stroke-width="1" />
  <circle cx="325" cy="250" r="8" fill="url(#nodeGradient4)" stroke="#fff" stroke-width="1" />
  <circle cx="275" cy="250" r="8" fill="url(#nodeGradient4)" stroke="#fff" stroke-width="1" />
</svg> 